<?xml version="1.0" standalone="no"?><!DOCTYPE svg PUBLIC "-//W3C//DTD SVG 1.1//EN" "http://www.w3.org/Graphics/SVG/1.1/DTD/svg11.dtd"><svg t="1779035399966" class="icon" viewBox="0 0 1024 1024" version="1.1" xmlns="http://www.w3.org/2000/svg" p-id="9208" xmlns:xlink="http://www.w3.org/1999/xlink" width="200" height="200"><path d="M530.06 866.74c-114.79 0-208.18-93.39-208.18-208.18V597.6c0-27.62-22.47-50.08-50.08-50.08-11.05 0-20-8.95-20-20s8.95-20 20-20c49.67 0 90.08 40.41 90.08 90.08v60.96c0 92.73 75.44 168.18 168.18 168.18s168.18-75.44 168.18-168.18V367.33c0-11.05 8.95-20 20-20s20 8.95 20 20v291.23c0 114.79-93.39 208.18-208.18 208.18z" fill="#333333" p-id="9209"></path><path d="M427.67 481.27c-11.05 0-20-8.95-20-20V237.09c0-11.05 8.95-20 20-20s20 8.95 20 20v224.18c0 11.05-8.95 20-20 20zM523.57 481.27c-11.05 0-20-8.95-20-20V192c0-11.05 8.95-20 20-20s20 8.95 20 20v269.27c0 11.05-8.95 20-20 20zM619.47 481.27c-11.05 0-20-8.95-20-20V258.25c0-11.05 8.95-20 20-20s20 8.95 20 20v203.02c0 11.05-8.95 20-20 20zM545.42 724.85c-11.05 0-20-8.95-20-20v-3.16c0-53.78-43.76-97.54-97.54-97.54-11.05 0-20-8.95-20-20s8.95-20 20-20c75.84 0 137.54 61.7 137.54 137.54v3.16c0 11.05-8.95 20-20 20z" fill="#333333" p-id="9210"></path></svg>